<?xml version="1.0" standalone="no"?>
<!DOCTYPE svg PUBLIC "-//W3C//DTD SVG 20010904//EN"
 "http://www.w3.org/TR/2001/REC-SVG-20010904/DTD/svg10.dtd">
<svg version="1.0" xmlns="http://www.w3.org/2000/svg"
 width="700.000000pt" height="700.000000pt" viewBox="0 0 700.000000 700.000000"
 preserveAspectRatio="xMidYMid meet">
<metadata>
Created by potrace 1.14, written by Peter Selinger 2001-2017
</metadata>
<g transform="translate(0.000000,700.000000) scale(0.100000,-0.100000)"
fill="#000000" stroke="none">
<path d="M3538 6995 c-2 -2 -42 -6 -89 -9 -47 -4 -95 -8 -107 -11 -11 -2 -52
-7 -89 -10 -37 -4 -77 -9 -88 -11 -19 -4 -49 -9 -105 -18 -161 -27 -345 -86
-459 -147 -280 -151 -386 -371 -376 -779 2 -91 6 -175 9 -187 2 -12 7 -46 10
-75 7 -63 13 -94 42 -248 10 -54 57 -222 95 -345 36 -113 46 -135 80 -167 50
-48 106 -58 193 -34 237 66 285 91 303 163 14 55 10 79 -46 282 -28 101 -53
202 -57 224 -3 23 -7 44 -9 47 -2 3 -7 33 -10 65 -4 33 -10 78 -14 100 -4 23
-9 97 -10 165 -3 177 25 257 105 295 84 40 263 81 434 99 30 4 80 10 110 15
30 5 127 8 215 7 168 -2 191 -7 242 -55 48 -46 84 -150 118 -346 3 -16 7 -59
11 -95 3 -36 7 -78 10 -95 6 -45 5 -360 -2 -437 -9 -101 30 -173 111 -202 37
-14 302 -18 339 -6 64 21 98 59 112 125 7 33 17 252 17 365 1 104 -9 293 -18
380 -42 370 -150 637 -316 775 -89 74 -238 135 -394 160 -38 7 -361 15 -367
10z"/>
<path d="M823 4658 c-62 -17 -74 -52 -147 -448 -29 -155 -72 -420 -81 -500 -3
-30 -8 -66 -10 -80 -2 -14 -6 -43 -9 -65 -3 -22 -8 -74 -11 -115 -3 -41 -8
-93 -11 -115 -6 -51 -11 -141 -19 -335 -4 -85 -8 -184 -11 -220 -5 -82 -4
-366 1 -445 2 -33 6 -121 10 -195 4 -74 8 -148 10 -165 2 -16 7 -59 10 -94 3
-35 8 -75 10 -90 2 -14 6 -48 10 -76 29 -216 98 -469 181 -663 202 -470 580
-757 1200 -911 66 -16 133 -31 149 -34 17 -3 73 -12 125 -22 131 -22 138 -23
200 -30 30 -3 69 -8 85 -10 17 -2 66 -6 110 -10 44 -3 94 -8 110 -10 196 -26
1268 -26 1505 -1 19 2 71 7 115 10 44 4 98 9 120 11 59 7 126 15 163 21 17 2
49 6 70 9 20 3 48 7 62 10 59 12 77 16 110 21 19 3 82 17 139 30 600 140 978
410 1191 849 79 161 156 393 184 555 4 19 8 44 10 55 5 26 27 172 31 205 49
391 53 1047 10 1533 -14 157 -17 187 -25 257 -5 41 -12 98 -15 125 -11 97 -61
412 -90 560 -63 325 -69 344 -110 371 -20 13 -38 16 -88 10 -81 -8 -136 -15
-167 -21 -39 -8 -46 -9 -255 -41 -55 -8 -107 -16 -115 -19 -8 -2 -37 -6 -64
-10 -107 -13 -134 -58 -112 -185 4 -24 9 -47 11 -50 1 -3 6 -27 9 -55 4 -27 9
-57 11 -65 7 -26 17 -84 30 -175 3 -27 8 -57 10 -65 2 -8 7 -39 10 -69 4 -30
9 -63 11 -75 2 -12 7 -45 10 -75 3 -30 7 -62 9 -70 2 -9 6 -45 10 -81 4 -36 8
-72 10 -81 2 -8 6 -55 10 -105 4 -49 8 -100 10 -114 28 -198 34 -847 10 -1100
-3 -36 -8 -90 -11 -120 -3 -30 -16 -113 -29 -185 -56 -302 -129 -471 -272
-626 -130 -140 -311 -240 -498 -275 -22 -4 -44 -8 -50 -9 -58 -14 -313 -52
-395 -60 -36 -4 -76 -8 -90 -11 -113 -18 -1032 -26 -1265 -11 -163 11 -299 24
-340 32 -11 2 -47 7 -80 10 -33 4 -68 9 -77 11 -10 3 -30 7 -45 10 -30 4 -83
13 -123 21 -225 40 -396 127 -535 272 -136 142 -216 315 -270 585 -33 165 -48
295 -60 511 -6 102 -6 556 0 655 12 201 20 320 29 405 32 293 36 323 42 355 2
14 7 45 9 70 3 25 7 56 10 69 2 13 7 49 11 80 3 31 8 58 9 61 2 3 6 29 10 59
4 30 9 63 11 75 2 12 6 32 8 46 8 47 20 115 21 120 8 30 18 109 16 124 -4 26
-30 65 -52 76 -9 6 -35 12 -56 15 -21 4 -63 10 -93 15 -98 17 -182 30 -285 45
-22 3 -65 10 -95 15 -30 6 -77 13 -105 16 -27 3 -52 7 -55 8 -3 2 -19 -1 -37
-6z"/>
</g>
</svg>
